Coordinates
version=1
nRows=22
nColumns=24
inDegrees=yes

Units are S.I. units (second, meters, Newtons, ...)
Angles are in degrees.

endheader
time	pelvis_tilt	pelvis_list	pelvis_rotation	pelvis_tx	pelvis_ty	pelvis_tz	hip_flexion_r	hip_adduction_r	hip_rotation_r	knee_angle_r	ankle_angle_r	subtalar_angle_r	mtp_angle_r	hip_flexion_l	hip_adduction_l	hip_rotation_l	knee_angle_l	ankle_angle_l	subtalar_angle_l	mtp_angle_l	lumbar_extension	lumbar_bending	lumbar_rotation
      5.48000000	     -1.55140119	      4.21784723	     17.06313974	      0.86669354	      0.64058855	     -0.25176035	     27.24223415	     -9.95547928	    -12.13654442	     -9.15749811	     -2.10789191	    -16.76047304	      0.00000000	    -17.53368755	      1.59731333	     12.12649468	    -19.36291031	     18.80742360	     -4.91448189	      0.00000000	    -15.77779640	     -5.01204737	     -9.27259127
      5.49000000	     -1.71708075	      3.39068124	     17.26984211	      0.87930635	      0.63980736	     -0.25060192	     28.03454984	     -9.04614220	    -10.84054176	    -11.85348162	     -3.89219718	    -19.18306962	      0.00000000	    -17.77587431	      0.35199905	     12.22144431	    -19.86008492	     17.21921434	     -5.00728127	      0.00000000	    -15.25808267	     -4.15262617	     -8.93582560
      5.50000000	     -1.81957850	      2.47411168	     17.32563690	      0.89178748	      0.63943900	     -0.24923463	     28.90451754	     -7.91391846	     -9.56959767	    -14.79167871	     -4.68989264	    -20.69271928	      0.00000000	    -17.81452777	     -0.88176310	     12.11448692	    -20.71266769	     15.23097096	     -5.38632027	      0.00000000	    -14.86157064	     -3.16401015	     -8.66178918
      5.51000000	     -1.78805593	      1.46098715	     17.27675751	      0.90420758	      0.63953858	     -0.24770698	     29.61894797	     -6.55235572	     -8.59183232	    -17.67516195	     -4.50475184	    -21.30071211	      0.00000000	    -17.65638064	     -2.16145762	     11.64754361	    -22.02865676	     12.94704275	     -5.73571682	      0.00000000	    -14.63603383	     -2.00950576	     -8.42718282
      5.52000000	     -1.74980921	      0.58754562	     17.20919821	      0.91651051	      0.64007374	     -0.24607716	     30.04370253	     -5.19357587	     -7.56031906	    -20.09363850	     -4.15315179	    -22.23121697	      0.00000000	    -17.26287157	     -3.17132956	     11.36311239	    -23.72085744	      9.76962583	     -6.95505430	      0.00000000	    -14.51566154	     -1.00954614	     -8.39216352
      5.53000000	     -1.70343596	     -0.26281798	     17.16842392	      0.92871969	      0.64096907	     -0.24438468	     30.14049964	     -3.81206869	     -6.87272887	    -21.93505306	     -3.48747119	    -23.02531301	      0.00000000	    -16.48933252	     -4.11483424	     10.84500174	    -25.93932744	      6.13751207	     -8.19100277	      0.00000000	    -14.41822038	     -0.03860608	     -8.48190987
      5.54000000	     -1.70701935	     -1.00335064	     17.18363444	      0.94074453	      0.64217084	     -0.24267462	     29.91869722	     -2.52936791	     -6.40596881	    -23.12434225	     -2.77883656	    -23.94011826	      0.00000000	    -15.31746138	     -4.88256108	     10.33230862	    -28.59713889	      1.91449221	     -9.74759005	      0.00000000	    -14.30202607	      0.77345420	     -8.71397862
      5.55000000	     -1.76345489	     -1.62973689	     17.23910246	      0.95251415	      0.64362917	     -0.24096222	     29.41872242	     -1.37008261	     -6.11747502	    -23.70707694	     -2.08265803	    -24.88654157	      0.00000000	    -13.77194029	     -5.46707134	      9.88360527	    -31.62099716	     -2.71281055	    -11.60143115	      0.00000000	    -14.16331927	      1.40729544	     -9.02886834
      5.56000000	     -1.87346351	     -2.16137278	     17.29859815	      0.96396424	      0.64527246	     -0.23927034	     28.73145250	     -0.33717625	     -6.00009534	    -23.81888089	     -1.36401585	    -25.67780160	      0.00000000	    -11.88958277	     -5.87730476	      9.49875562	    -34.94247865	     -7.37166021	    -13.67368205	      0.00000000	    -13.99917236	      1.88590241	     -9.35756125
      5.57000000	     -2.02496394	     -2.60756718	     17.30227684	      0.97506903	      0.64705702	     -0.23759401	     27.93882438	      0.57779604	     -6.03019004	    -23.62098634	     -0.57942450	    -26.11683350	      0.00000000	     -9.74972511	     -6.11085082	      9.14219350	    -38.46439151	    -11.68740805	    -15.90720409	      0.00000000	    -13.82651422	      2.21644661	     -9.60271164
      5.58000000	     -2.20379969	     -2.99181883	     17.20048495	      0.98584620	      0.64893686	     -0.23591828	     27.10131967	      1.40596241	     -6.17766665	    -23.24461001	      0.35951801	    -26.08133986	      0.00000000	     -7.43576212	     -6.19180604	      8.76013338	    -42.08505256	    -15.30657386	    -18.27121186	      0.00000000	    -13.66118172	      2.43060072	     -9.70014360
      5.59000000	     -2.37795638	     -3.32627785	     16.96755161	      0.99636182	      0.65089883	     -0.23424333	     26.22309203	      2.17523260	     -6.40217315	    -22.77521349	      1.48432501	    -25.53957698	      0.00000000	     -5.05367989	     -6.15908795	      8.29226429	    -45.67395522	    -18.02880252	    -20.72962286	      0.00000000	    -13.51003981	      2.56188717	     -9.60635689
      5.60000000	     -2.48993618	     -3.59571693	     16.51493271	      1.00672496	      0.65296848	     -0.23247836	     25.25660269	      2.93112133	     -6.60590744	    -22.26523213	      2.93376435	    -24.34910771	      0.00000000	     -2.75939101	     -6.03452843	      7.64275200	    -49.09115427	    -19.70348779	    -23.14456204	      0.00000000	    -13.44481884	      2.59185354	     -9.21568027
      5.61000000	     -2.61146641	     -3.84138613	     16.00402965	      1.01695623	      0.65505396	     -0.23071986	     24.23444794	      3.65409685	     -6.78975151	    -21.62469415	      4.14393539	    -23.23288610	      0.00000000	     -0.45505759	     -5.85655139	      7.02874940	    -52.29945347	    -20.25579179	    -25.26334274	      0.00000000	    -13.33620213	      2.57679657	     -8.74377282
      5.62000000	     -2.65737798	     -3.97703715	     15.27949753	      1.02717213	      0.65723893	     -0.22882312	     23.06306162	      4.35447450	     -6.75903633	    -20.91753561	      5.40455463	    -21.85047484	      0.00000000	      1.66377680	     -5.59836525	      6.24831880	    -55.16626525	    -19.73082145	    -26.79420275	      0.00000000	    -13.30470618	      2.41524557	     -8.06726974
      5.63000000	     -2.66925082	     -3.98023911	     14.42839417	      1.03736540	      0.65948382	     -0.22683313	     21.74977704	      4.98261682	     -6.43006303	    -20.08755338	      6.39639146	    -20.74347318	      0.00000000	      3.64225709	     -5.21643163	      5.46497058	    -57.66355222	    -18.24699486	    -27.52290707	      0.00000000	    -13.29983823	      2.07896057	     -7.23635808
      5.64000000	     -2.69585298	     -3.85297250	     13.51552766	      1.04750151	      0.66169592	     -0.22481474	     20.38520286	      5.46758388	     -6.00205046	    -19.20578853	      7.34202945	    -19.72541349	      0.00000000	      5.56688064	     -4.69412017	      4.75583666	    -59.82440420	    -16.10886451	    -27.50247455	      0.00000000	    -13.24960025	      1.57246738	     -6.31318230
      5.65000000	     -2.76093954	     -3.62899884	     12.53171184	      1.05758533	      0.66384361	     -0.22273009	     19.00294067	      5.85322495	     -5.35487385	    -18.26763284	      8.13075992	    -18.79206514	      0.00000000	      7.46801580	     -4.09777129	      4.07197118	    -61.62071117	    -13.61375948	    -26.76195158	      0.00000000	    -13.12462507	      0.93620096	     -5.40146708
      5.66000000	     -2.85804428	     -3.34694124	     11.53203471	      1.06754608	      0.66585566	     -0.22062853	     17.65479268	      6.14279293	     -4.62779274	    -17.34663845	      8.87101391	    -17.93594538	      0.00000000	      9.38449706	     -3.45799472	      3.49318088	    -63.11914039	    -10.94003927	    -25.44518964	      0.00000000	    -12.94317486	      0.22766149	     -4.43120340
      5.67000000	     -2.99332542	     -3.02223118	     10.50947293	      1.07739329	      0.66771481	     -0.21851575	     16.35353382	      6.34680566	     -3.84686239	    -16.43907518	      9.55946140	    -17.09953356	      0.00000000	     11.31816206	     -2.81583280	      2.96647986	    -64.30655014	     -8.37019439	    -23.90810974	      0.00000000	    -12.69712991	     -0.52909354	     -3.45935452
      5.68000000	     -3.15294013	     -2.68470003	      9.48778268	      1.08709895	      0.66939237	     -0.21643809	     15.11726374	      6.48379719	     -3.09614876	    -15.58318639	     10.23536170	    -16.25121447	      0.00000000	     13.26573170	     -2.20495792	      2.50351918	    -65.20024151	     -6.02400006	    -22.45634525	      0.00000000	    -12.41576391	     -1.28148609	     -2.46643549
      5.69000000	     -3.32848483	     -2.33336078	      8.45568654	      1.09664998	      0.67088909	     -0.21438565	     13.93280045	      6.56029620	     -2.34358377	    -14.76488479	     10.86947532	    -15.37338774	      0.00000000	     15.20883557	     -1.64110752	      2.06625197	    -65.78386502	     -4.10000311	    -21.42746732	      0.00000000	    -12.12397597	     -2.03100253	     -1.48614498
